<svg width="132" height="43" viewBox="0 0 132 43" fill="none" xmlns="http://www.w3.org/2000/svg">
<g id="google-2015 1" clip-path="url(#clip0_306_4128)">
<path id="Vector" d="M16.256 0.00390625H17.4299C21.505 0.0923225 25.5138 1.72802 28.393 4.62365C27.3299 5.70675 26.2446 6.74564 25.2037 7.82874C23.5869 6.36988 21.6379 5.24257 19.5117 4.8447C16.3668 4.18157 12.9782 4.77838 10.3426 6.56881C7.46343 8.44766 5.51443 11.6306 5.09363 15.0347C4.62853 18.3945 5.58088 21.9311 7.77349 24.5394C9.87752 27.0814 13.0889 28.6729 16.4111 28.7834C19.5117 28.9602 22.7453 28.0098 25.0044 25.8436C26.7762 24.3184 27.5956 21.9974 27.8614 19.7428C24.1849 19.7428 20.5084 19.7649 16.8319 19.7428V15.1894H32.3131C33.1104 20.0744 31.9587 25.5783 28.2379 29.0707C25.7574 31.5464 22.3245 33.0053 18.8252 33.2926C15.4366 33.6242 11.9373 32.9832 8.92517 31.3475C5.3151 29.4244 2.43591 26.1751 1.01846 22.3511C-0.310399 18.8366 -0.332547 14.8578 0.907722 11.3212C2.03725 8.09399 4.20772 5.24257 6.99833 3.2532C9.67819 1.28594 12.9339 0.202843 16.256 0.00390625Z" fill="#8588D7"/>
<path id="Vector_2" d="M105.068 1.15332H109.808V32.7179C108.235 32.7179 106.641 32.74 105.068 32.6958C105.091 22.1964 105.068 11.6749 105.068 1.15332Z" fill="#8588D7"/>
<path id="Vector_3" d="M42.8555 12.0945C45.779 11.5419 48.9461 12.1608 51.3602 13.9071C53.5528 15.4543 55.081 17.8858 55.5461 20.5383C56.1441 23.6107 55.3911 26.9705 53.3978 29.402C51.2494 32.1208 47.728 33.5797 44.2951 33.3586C41.1501 33.1818 38.0937 31.6124 36.2333 29.0483C34.1293 26.219 33.6199 22.3287 34.7716 19.0131C35.9233 15.4543 39.179 12.7355 42.8555 12.0945ZM43.5199 16.2943C42.3239 16.6037 41.2166 17.289 40.4192 18.2615C38.2709 20.8256 38.4038 25.0033 40.7736 27.3905C42.1246 28.761 44.1622 29.402 46.0447 29.0262C47.7944 28.7168 49.3226 27.5453 50.1642 25.998C51.626 23.3676 51.2052 19.7425 48.9682 17.6868C47.5286 16.3606 45.4246 15.808 43.5199 16.2943Z" fill="#8588D7"/>
<path id="Vector_4" d="M66.3319 12.0952C69.6762 11.4541 73.3306 12.3825 75.8333 14.7256C79.9084 18.3727 80.3514 25.2029 76.8742 29.4026C74.7702 32.0551 71.3594 33.514 67.993 33.3593C64.7816 33.2709 61.6145 31.6794 59.7098 29.049C57.5615 26.1533 57.0963 22.1746 58.3145 18.7927C59.5326 15.3445 62.7219 12.7141 66.3319 12.0952ZM66.9964 16.2949C65.8004 16.6044 64.693 17.2896 63.8957 18.2401C61.7695 20.76 61.8581 24.8713 64.1393 27.2807C65.4903 28.7174 67.5943 29.4248 69.5433 29.0269C71.2708 28.6953 72.8212 27.5459 73.6628 25.9986C75.1024 23.3461 74.6816 19.7211 72.4225 17.6654C70.9829 16.3391 68.8789 15.8086 66.9964 16.2949Z" fill="#8588D7"/>
<path id="Vector_5" d="M86.2429 13.3769C88.7899 11.7854 92.1785 11.3433 94.9248 12.7138C95.7885 13.0896 96.4973 13.7306 97.1838 14.3716C97.206 13.7748 97.1838 13.1559 97.206 12.537C98.6899 12.5591 100.174 12.537 101.68 12.5591V32.0548C101.658 34.9947 100.905 38.1114 98.7785 40.2555C96.453 42.6206 92.8872 43.35 89.6758 42.8637C86.2429 42.3553 83.253 39.8576 81.9241 36.6967C83.253 36.0557 84.6483 35.5473 86.0214 34.9505C86.7966 36.763 88.3691 38.3103 90.3402 38.664C92.3114 39.0176 94.5926 38.5313 95.8771 36.8956C97.2503 35.2157 97.2503 32.9169 97.1838 30.8612C96.165 31.8559 94.9912 32.7401 93.5738 33.0716C90.4952 33.9337 87.1067 32.8727 84.7369 30.7949C82.3449 28.7171 80.9275 25.512 81.0603 22.3291C81.1268 18.7261 83.1644 15.2558 86.2429 13.3769ZM90.8275 16.2062C89.4765 16.4273 88.214 17.1788 87.3503 18.2177C85.2684 20.6934 85.2684 24.65 87.3724 27.0814C88.5684 28.5182 90.4952 29.3139 92.3556 29.115C94.1053 28.9382 95.7221 27.833 96.5859 26.3078C98.0476 23.7216 97.804 20.2071 95.8328 17.9525C94.6147 16.5599 92.6657 15.8747 90.8275 16.2062Z" fill="#8588D7"/>
<path id="Vector_6" d="M115.5 14.5043C118.157 12.0287 122.255 11.1887 125.665 12.4929C128.899 13.7086 130.959 16.7811 132 19.9419C127.194 21.9313 122.41 23.8986 117.604 25.8879C118.268 27.1479 119.287 28.2973 120.66 28.7615C122.587 29.4467 124.89 29.2035 126.507 27.9215C127.149 27.4352 127.659 26.7942 128.146 26.1753C129.364 26.9931 130.582 27.7889 131.8 28.6067C130.073 31.1929 127.171 33.0054 124.049 33.2928C120.594 33.7128 116.917 32.3865 114.68 29.6898C111.004 25.4459 111.358 18.3283 115.5 14.5043ZM117.869 18.5936C117.116 19.6767 116.806 21.0029 116.828 22.3071C120.04 20.9808 123.251 19.6546 126.463 18.3062C125.931 17.0684 124.647 16.3169 123.34 16.1179C121.236 15.7422 119.043 16.8695 117.869 18.5936Z" fill="#8588D7"/>
</g>
<defs>
<clipPath id="clip0_306_4128">
<rect width="132" height="43" fill="white"/>
</clipPath>
</defs>
</svg>
