<svg width="202" height="43" viewBox="0 0 202 43" fill="none" xmlns="http://www.w3.org/2000/svg">
<g id="microsoft 1" clip-path="url(#clip0_306_4122)">
<path id="Vector" d="M202 19.453V15.9126H197.588V10.4087L197.44 10.4543L193.296 11.7177L193.214 11.7425V15.9128H186.674V13.5896C186.674 12.5078 186.917 11.68 187.395 11.1279C187.87 10.5824 188.55 10.3051 189.416 10.3051C190.039 10.3051 190.684 10.4513 191.334 10.7398L191.496 10.8122V7.08372L191.42 7.05568C190.814 6.83874 189.991 6.72949 188.97 6.72949C187.683 6.72949 186.514 7.00855 185.494 7.56161C184.474 8.11545 183.671 8.90609 183.109 9.91134C182.549 10.9154 182.265 12.0751 182.265 13.3584V15.9126H179.193V19.453H182.265V34.3679H186.674V19.453H193.214V28.9311C193.214 32.8347 195.062 34.8128 198.706 34.8128C199.304 34.8128 199.935 34.7429 200.578 34.606C201.233 34.4654 201.679 34.325 201.942 34.1751L202 34.1408V30.5677L201.82 30.6859C201.581 30.8448 201.283 30.9747 200.934 31.0713C200.583 31.1697 200.29 31.2189 200.063 31.2189C199.209 31.2189 198.577 30.9897 198.186 30.5373C197.789 30.0809 197.588 29.2826 197.588 28.166V19.453H202ZM169.345 31.2195C167.745 31.2195 166.483 30.6906 165.593 29.6487C164.699 28.6016 164.245 27.1088 164.245 25.212C164.245 23.2551 164.699 21.7234 165.594 20.6578C166.484 19.5992 167.733 19.0619 169.309 19.0619C170.838 19.0619 172.055 19.5751 172.927 20.5879C173.804 21.606 174.248 23.1254 174.248 25.1051C174.248 27.1091 173.83 28.6486 173.005 29.6783C172.187 30.7003 170.955 31.2195 169.345 31.2195ZM169.541 15.468C166.488 15.468 164.062 16.3597 162.333 18.1184C160.605 19.8773 159.728 22.3114 159.728 25.3536C159.728 28.2431 160.584 30.5673 162.271 32.2606C163.958 33.9544 166.254 34.8124 169.095 34.8124C172.055 34.8124 174.432 33.9083 176.16 32.1252C177.889 30.3442 178.764 27.9331 178.764 24.962C178.764 22.0272 177.943 19.6857 176.321 18.0037C174.699 16.321 172.418 15.468 169.541 15.468ZM152.619 15.468C150.541 15.468 148.823 15.9975 147.511 17.0415C146.19 18.0917 145.52 19.4691 145.52 21.1359C145.52 22.0023 145.665 22.7719 145.949 23.4247C146.236 24.0796 146.679 24.6562 147.267 25.1401C147.851 25.6202 148.753 26.123 149.948 26.6346C150.952 27.0464 151.701 27.3948 152.177 27.6694C152.642 27.9385 152.972 28.209 153.158 28.4725C153.339 28.7304 153.431 29.0832 153.431 29.5187C153.431 30.7586 152.5 31.3619 150.582 31.3619C149.871 31.3619 149.06 31.2139 148.172 30.9221C147.29 30.6348 146.457 30.2141 145.703 29.6746L145.52 29.5438V33.7749L145.587 33.806C146.211 34.0931 146.998 34.3351 147.925 34.5256C148.85 34.7162 149.691 34.8132 150.422 34.8132C152.676 34.8132 154.491 34.2812 155.815 33.231C157.148 32.1735 157.824 30.7636 157.824 29.0392C157.824 27.7952 157.46 26.7284 156.743 25.8681C156.031 25.0147 154.796 24.2313 153.073 23.5388C151.7 22.9896 150.82 22.5337 150.457 22.1838C150.107 21.8457 149.93 21.3676 149.93 20.7622C149.93 20.2255 150.149 19.7955 150.599 19.4473C151.053 19.0974 151.684 18.9194 152.476 18.9194C153.21 18.9194 153.962 19.0351 154.71 19.2617C155.457 19.4884 156.113 19.792 156.661 20.1634L156.841 20.2861V16.2725L156.772 16.2429C156.266 16.0269 155.6 15.8421 154.791 15.6922C153.985 15.5432 153.254 15.468 152.619 15.468ZM134.024 31.2195C132.424 31.2195 131.162 30.6906 130.273 29.6487C129.378 28.6016 128.925 27.1091 128.925 25.212C128.925 23.2551 129.378 21.7234 130.274 20.6578C131.163 19.5992 132.412 19.0619 133.989 19.0619C135.517 19.0619 136.735 19.5751 137.607 20.5879C138.483 21.606 138.928 23.1254 138.928 25.1051C138.928 27.1091 138.509 28.6486 137.685 29.6783C136.866 30.7003 135.635 31.2195 134.024 31.2195ZM134.221 15.468C131.167 15.468 128.741 16.3597 127.013 18.1184C125.284 19.8773 124.408 22.3114 124.408 25.3536C124.408 28.2443 125.264 30.5673 126.951 32.2606C128.638 33.9544 130.934 34.8124 133.774 34.8124C136.734 34.8124 139.112 33.9083 140.84 32.1252C142.568 30.3442 143.444 27.9331 143.444 24.962C143.444 22.0272 142.622 19.6857 141.001 18.0037C139.378 16.321 137.097 15.468 134.221 15.468ZM117.714 19.1087V15.9126H113.358V34.3675H117.714V24.9271C117.714 23.3219 118.079 22.0031 118.8 21.007C119.511 20.0228 120.459 19.5241 121.617 19.5241C122.009 19.5241 122.45 19.5885 122.927 19.7161C123.399 19.8428 123.741 19.9805 123.942 20.1254L124.125 20.2576V15.8811L124.055 15.8509C123.649 15.6791 123.075 15.5925 122.349 15.5925C121.255 15.5925 120.275 15.943 119.436 16.6332C118.699 17.2398 118.167 18.0715 117.76 19.1087H117.714ZM105.557 15.468C103.559 15.468 101.776 15.8951 100.26 16.7369C98.7407 17.5808 97.5657 18.7854 96.7663 20.3172C95.9704 21.8453 95.5663 23.6303 95.5663 25.6209C95.5663 27.3646 95.9581 28.9648 96.7325 30.3751C97.5073 31.7878 98.6039 32.8929 99.9921 33.6594C101.378 34.4249 102.98 34.813 104.754 34.813C106.824 34.813 108.592 34.4006 110.009 33.5871L110.066 33.5544V29.5773L109.883 29.7105C109.241 30.1765 108.524 30.5484 107.752 30.8164C106.982 31.0842 106.28 31.2195 105.665 31.2195C103.956 31.2195 102.583 30.6865 101.587 29.6357C100.589 28.5835 100.083 27.106 100.083 25.2469C100.083 23.376 100.611 21.8605 101.651 20.7423C102.688 19.6275 104.063 19.0619 105.737 19.0619C107.168 19.0619 108.564 19.5451 109.884 20.4993L110.066 20.6315V16.4409L110.007 16.4078C109.51 16.1307 108.833 15.9019 107.992 15.7284C107.154 15.5553 106.335 15.468 105.557 15.468ZM92.5663 15.9128H88.2103V34.3675H92.5663V15.9128ZM90.4328 8.05099C89.7159 8.05099 89.0906 8.29422 88.5769 8.7762C88.061 9.25954 87.7994 9.8681 87.7994 10.5863C87.7994 11.2932 88.0579 11.8907 88.5689 12.3612C89.0765 12.8303 89.7038 13.0681 90.433 13.0681C91.1621 13.0681 91.7917 12.8303 92.3054 12.3619C92.8225 11.8907 93.0847 11.2934 93.0847 10.5863C93.0847 9.89323 92.8295 9.2909 92.3267 8.79568C91.8243 8.30143 91.1869 8.05099 90.4328 8.05099ZM79.5644 14.5512V34.3675H84.0098V8.61593H77.8571L70.0366 27.7434L62.4472 8.61593H56.0439V34.3673H60.2215V14.5492H60.365L68.3791 34.3675H71.5318L79.4209 14.5512H79.5644Z" fill="#8588D7"/>
<path id="Vector_2" d="M20.4918 20.4327H0V0.0107422H20.4918V20.4327Z" fill="#8588D7"/>
<path id="Vector_3" d="M43.1174 20.4327H22.626V0.0107422H43.1174V20.4327Z" fill="#8588D7"/>
<path id="Vector_4" d="M20.4912 42.9891H0V22.5674H20.4912V42.9891Z" fill="#8588D7"/>
<path id="Vector_5" d="M43.1174 42.9891H22.626V22.5674H43.1174V42.9891Z" fill="#8588D7"/>
</g>
<defs>
<clipPath id="clip0_306_4122">
<rect width="202" height="43" fill="white"/>
</clipPath>
</defs>
</svg>
