<svg width="181" height="43" viewBox="0 0 181 43" fill="none" xmlns="http://www.w3.org/2000/svg">
<g id="walmart 1" clip-path="url(#clip0_306_4149)">
<path id="Vector" d="M158.928 14.4756C159.936 14.4756 160.765 13.9517 160.877 13.2749L161.872 2.02482C161.872 0.912855 160.569 0 158.932 0C157.296 0 155.994 0.91285 155.994 2.02501L156.988 13.2749C157.098 13.9515 157.927 14.4756 158.932 14.4756H158.928ZM152.849 17.9895C153.354 17.118 153.316 16.1385 152.783 15.7033L143.537 9.21684C142.576 8.66006 141.135 9.33024 140.317 10.7491C139.496 12.1661 139.641 13.7488 140.6 14.3058L150.838 19.0732C151.478 19.3104 152.351 18.8538 152.852 17.9829L152.849 17.9895ZM165.013 17.9835C165.518 18.8544 166.386 19.3112 167.027 19.0738L177.265 14.3064C178.23 13.7496 178.367 12.1667 177.554 10.7497C176.731 9.33225 175.287 8.66066 174.329 9.21744L165.082 15.7039C164.553 16.1385 164.514 17.1188 165.017 17.9901L165.013 17.9835ZM158.928 28.5286C159.936 28.5286 160.765 29.0481 160.877 29.7255L161.872 40.974C161.872 42.0894 160.569 43.0002 158.932 43.0002C157.296 43.0002 155.994 42.0894 155.994 40.974L156.988 29.7255C157.098 29.0481 157.927 28.5286 158.932 28.5286H158.928ZM165.013 25.0139C165.518 24.1406 166.386 23.6878 167.027 23.9279L177.265 28.692C178.23 29.2494 178.367 30.8337 177.554 32.2519C176.731 33.6647 175.287 34.3381 174.329 33.7822L165.082 27.3017C164.553 26.8637 164.514 25.8828 165.017 25.0121H165.013M152.849 25.0127C153.354 25.8828 153.316 26.8637 152.783 27.3025L143.537 33.7828C142.576 34.3387 141.135 33.6653 140.317 32.2525C139.496 30.8343 139.641 29.25 140.6 28.6926L150.838 23.9285C151.478 23.6884 152.351 24.1412 152.852 25.0147H152.849" fill="#8588D7"/>
<path id="Vector_2" d="M100.607 27.2809C100.607 27.6261 100.576 27.9822 100.482 28.2949C100.089 29.5937 98.7448 30.6921 97.0626 30.6921C95.6599 30.6921 94.5459 29.8952 94.5459 28.2122C94.5459 25.6365 97.3807 24.9251 100.608 24.943L100.607 27.2807V27.2809ZM105.668 22.7921C105.668 18.5448 103.854 14.8075 97.7221 14.8075C94.5746 14.8075 92.0765 15.6916 90.713 16.4796L91.7117 19.8942C92.9578 19.1074 94.9438 18.4561 96.8234 18.4561C99.9335 18.4474 100.443 20.2175 100.443 21.3504V21.6185C93.6632 21.6085 89.3776 23.9563 89.3776 28.7389C89.3776 31.6613 91.5603 34.3985 95.3547 34.3985C97.6861 34.3985 99.6389 33.4678 100.808 31.9754H100.923C100.923 31.9754 101.696 35.2154 105.965 33.9758C105.742 32.6284 105.669 31.19 105.669 29.4605L105.669 22.7921M0.0341797 9.02326C0.0341797 9.02326 4.46452 27.1787 5.17197 30.1252C5.99723 33.5645 7.48458 34.8306 11.7708 33.9758L14.537 22.7201C15.2384 19.9229 15.7079 17.9286 16.1598 15.0861H16.2385C16.5558 17.9587 17.006 19.9315 17.5832 22.7293C17.5832 22.7293 18.7086 27.8395 19.286 30.5227C19.864 33.205 21.4728 34.8966 25.6718 33.9758L32.2634 9.02246H26.943L24.6916 19.8115C24.0863 22.9507 23.5376 25.4064 23.1141 28.2777H23.0388C22.6541 25.4317 22.1642 23.0761 21.5495 20.0168L19.2074 9.02246H13.663L11.1563 19.7396C10.4468 22.9972 9.78153 25.6266 9.36007 28.4023H9.28341C8.85071 25.7886 8.27472 22.4826 7.65136 19.3308C7.65136 19.3308 6.1632 11.6649 5.63979 9.02246L0.0341797 9.02326ZM42.3274 27.2809C42.3274 27.6261 42.2967 27.9822 42.2008 28.2949C41.8094 29.5937 40.464 30.6921 38.7818 30.6921C37.3789 30.6921 36.2665 29.8952 36.2665 28.2122C36.2665 25.6365 39.1005 24.9251 42.328 24.943L42.3274 27.2807V27.2809ZM47.3884 22.7921C47.3884 18.5448 45.5737 14.8075 39.4433 14.8075C36.295 14.8075 33.7949 15.6916 32.4322 16.4796L33.4296 19.8942C34.6755 19.1074 36.6616 18.4561 38.5417 18.4561C41.6541 18.4474 42.1635 20.2175 42.1635 21.3504V21.6185C35.381 21.6085 31.0974 23.9563 31.0974 28.7389C31.0974 31.6613 33.2789 34.3985 37.0704 34.3985C39.4051 34.3985 41.3567 33.4678 42.5267 31.9754H42.6407C42.6407 31.9754 43.4162 35.2154 47.6842 33.9758C47.461 32.6284 47.3884 31.19 47.3884 29.4605V22.7921ZM55.8348 28.6789V9.02326H50.7673V33.9766H55.8348V28.6789ZM122.128 9.02326V27.4308C122.128 29.9699 122.606 31.7468 123.627 32.8343C124.521 33.7851 125.99 34.4005 127.752 34.4005C129.251 34.4005 130.725 34.1145 131.42 33.8565L131.355 29.8972C130.837 30.0237 130.243 30.126 129.43 30.126C127.703 30.126 127.126 29.0197 127.126 26.7414V19.6983H131.539V14.9233H127.126V9.02326H122.128ZM109.047 15.2308V33.9766H114.275V24.3784C114.275 23.8595 114.306 23.4075 114.388 22.994C114.775 20.9825 116.312 19.6983 118.521 19.6983C119.126 19.6983 119.559 19.7641 120.029 19.8308V14.9233C119.635 14.8448 119.367 14.8081 118.877 14.8081C116.927 14.8081 114.707 16.067 113.776 18.7674H113.634V15.2308H109.047ZM59.3831 15.2308V33.9766H64.4761V22.984C64.4761 22.4682 64.5368 21.9226 64.7154 21.4497C65.1374 20.343 66.1674 19.0468 67.8109 19.0468C69.867 19.0468 70.8271 20.7844 70.8271 23.2921V33.9752H75.9162V22.8487C75.9162 22.3566 75.9834 21.7633 76.1289 21.3293C76.5467 20.0696 77.6562 19.0454 79.1843 19.0454C81.2677 19.0454 82.2678 20.7525 82.2678 23.7042V33.9746H87.3602V22.9332C87.3602 17.1111 84.404 14.8063 81.0664 14.8063C79.5897 14.8063 78.4228 15.1762 77.3676 15.8229C76.4815 16.3688 75.6868 17.1424 74.9934 18.1592H74.9181C74.1133 16.139 72.2198 14.8073 69.7522 14.8073C66.5822 14.8073 65.1575 16.4144 64.2933 17.7773H64.2174V15.2302H59.3831" fill="#8588D7"/>
<path id="Vector_3" d="M179.833 33.0657H179.91C180.012 33.0657 180.077 33.0236 180.077 32.961C180.077 32.8897 180.016 32.851 179.921 32.851C179.888 32.851 179.855 32.8576 179.833 32.8576V33.0675V33.0655L179.833 33.0657ZM179.821 33.5711H179.55V32.689C179.612 32.6769 179.755 32.6555 179.938 32.6555C180.138 32.6555 180.227 32.6836 180.292 32.7277C180.347 32.7663 180.388 32.8321 180.388 32.921C180.388 33.0115 180.304 33.0882 180.181 33.1217V33.133C180.282 33.1597 180.336 33.2323 180.365 33.3598C180.392 33.487 180.409 33.539 180.426 33.5717H180.119C180.093 33.539 180.077 33.4609 180.059 33.3831C180.042 33.2937 179.999 33.249 179.909 33.249H179.82L179.821 33.5711ZM179.933 32.4016C179.544 32.4016 179.251 32.7183 179.251 33.1221C179.251 33.5155 179.545 33.8365 179.943 33.8365C180.344 33.8431 180.638 33.5157 180.638 33.1157C180.638 32.7175 180.344 32.4016 179.939 32.4016H179.933ZM179.95 32.1621C180.492 32.1621 180.924 32.5888 180.924 33.1155C180.924 33.6484 180.492 34.0757 179.943 34.0757C179.394 34.0757 178.956 33.6478 178.956 33.1157C178.956 32.5888 179.394 32.1623 179.943 32.1623H179.949" fill="#8588D7"/>
</g>
<defs>
<clipPath id="clip0_306_4149">
<rect width="180.958" height="43" fill="white"/>
</clipPath>
</defs>
</svg>
