<svg width="168" height="43" viewBox="0 0 168 43" fill="none" xmlns="http://www.w3.org/2000/svg">
<g id="slack-2 1" clip-path="url(#clip0_306_4141)">
<path id="Vector" fill-rule="evenodd" clip-rule="evenodd" d="M53.7461 33.8574L55.8427 28.9293C58.1074 30.6422 61.1247 31.5327 64.1016 31.5327C66.2991 31.5327 67.6901 30.6762 67.6901 29.3779C67.6565 25.7481 54.5256 28.5894 54.4248 19.4878C54.3912 14.8656 58.4501 11.3038 64.2024 11.3038C67.6229 11.3038 71.0367 12.1602 73.476 14.1111L71.5138 19.1411C69.2827 17.7001 66.5074 16.6737 63.8664 16.6737C62.0722 16.6737 60.8895 17.5301 60.8895 18.6245C60.9231 22.1863 74.1547 20.2355 74.2891 28.9293C74.2891 33.6535 70.3311 36.9774 64.6459 36.9774C60.4795 36.9706 56.6559 35.9781 53.7461 33.8574ZM134.258 27.1484C133.21 28.9973 131.248 30.2616 128.976 30.2616C125.623 30.2616 122.922 27.5222 122.922 24.1372C122.922 20.7521 125.63 18.0128 128.976 18.0128C131.241 18.0128 133.21 19.2771 134.258 21.1259L140.044 17.8768C137.88 13.9751 133.714 11.3038 128.976 11.3038C121.968 11.3038 116.282 17.0543 116.282 24.144C116.282 31.2336 121.968 36.9841 128.976 36.9841C133.748 36.9841 137.88 34.3468 140.044 30.4111L134.258 27.1484ZM77.1989 0.652344H84.4431V36.4947H77.1989V0.652344ZM142.887 0.652344V36.4947H150.131V25.7413L158.726 36.4947H168L157.066 23.7225L167.186 11.8068H158.316L150.124 21.6969V0.652344H142.887Z" fill="#8588D7"/>
<path id="Vector_2" d="M105.968 27.2163C104.919 28.9632 102.755 30.2615 100.316 30.2615C96.9627 30.2615 94.2613 27.5221 94.2613 24.1371C94.2613 20.752 96.9694 18.0127 100.316 18.0127C102.755 18.0127 104.919 19.3789 105.968 21.1598V27.2163ZM105.968 11.8135V14.7227C104.785 12.7039 101.841 11.2969 98.757 11.2969C92.3931 11.2969 87.3867 16.9795 87.3867 24.1031C87.3867 31.2267 92.3931 36.9772 98.757 36.9772C101.835 36.9772 104.778 35.577 105.968 33.5514V36.4606H113.212V11.8135H105.968Z" fill="#8588D7"/>
<g id="Group">
<path id="Vector_3" fill-rule="evenodd" clip-rule="evenodd" d="M8.9708 27.1823C8.9708 29.6838 6.97496 31.7026 4.502 31.7026C2.02904 31.7026 0.0332031 29.677 0.0332031 27.1823C0.0332031 24.6877 2.02904 22.6621 4.502 22.6621H8.9708V27.1823ZM11.2018 27.1823C11.2018 24.6809 13.1977 22.6621 15.6706 22.6621C18.1436 22.6621 20.1394 24.6809 20.1394 27.1823V38.4795C20.1394 40.981 18.1436 42.9998 15.6706 42.9998C13.1977 42.9998 11.2018 40.981 11.2018 38.4795V27.1823Z" fill="#8588D7"/>
<path id="Vector_4" fill-rule="evenodd" clip-rule="evenodd" d="M15.671 9.04047C13.1981 9.04047 11.2022 7.02166 11.2022 4.52023C11.2022 2.01881 13.1981 0 15.671 0C18.144 0 20.1398 2.01881 20.1398 4.52023V9.04047H15.671ZM15.671 11.3312C18.144 11.3312 20.1398 13.35 20.1398 15.8514C20.1398 18.3528 18.144 20.3716 15.671 20.3716H4.4688C1.99584 20.3716 0 18.346 0 15.8514C0 13.3568 1.99584 11.3312 4.4688 11.3312H15.671Z" fill="#8588D7"/>
<path id="Vector_5" fill-rule="evenodd" clip-rule="evenodd" d="M33.5729 15.8514C33.5729 13.35 35.5688 11.3312 38.0417 11.3312C40.5147 11.3312 42.5105 13.35 42.5105 15.8514C42.5105 18.3528 40.5147 20.3716 38.0417 20.3716H33.5729V15.8514ZM31.3419 15.8514C31.3419 18.3528 29.3461 20.3716 26.8731 20.3716C24.4001 20.3716 22.4043 18.3528 22.4043 15.8514V4.52023C22.4043 2.01881 24.4001 0 26.8731 0C29.3461 0 31.3419 2.01881 31.3419 4.52023V15.8514Z" fill="#8588D7"/>
<path id="Vector_6" fill-rule="evenodd" clip-rule="evenodd" d="M26.8731 33.9593C29.3461 33.9593 31.3419 35.9781 31.3419 38.4795C31.3419 40.981 29.3461 42.9998 26.8731 42.9998C24.4001 42.9998 22.4043 40.981 22.4043 38.4795V33.9593H26.8731ZM26.8731 31.7026C24.4001 31.7026 22.4043 29.6838 22.4043 27.1823C22.4043 24.6809 24.4001 22.6621 26.8731 22.6621H38.0753C40.5483 22.6621 42.5441 24.6809 42.5441 27.1823C42.5441 29.6838 40.5483 31.7026 38.0753 31.7026H26.8731Z" fill="#8588D7"/>
</g>
</g>
<defs>
<clipPath id="clip0_306_4141">
<rect width="168" height="43" fill="white"/>
</clipPath>
</defs>
</svg>
