<svg width="128" height="43" viewBox="0 0 128 43" fill="none" xmlns="http://www.w3.org/2000/svg">
<g id="esl 1">
<path id="Vector" d="M31.4776 10.7148L11.0527 31.2407C12.0913 32.2844 13.2822 33.175 14.5977 33.8708L35.4933 18.4938C34.9809 15.4741 33.5408 12.7883 31.4776 10.7148Z" fill="#8588D7"/>
<path id="Vector_2" d="M21.3556 6.4707L7.5498 25.8416C8.076 27.3167 8.82376 28.6943 9.77923 29.905L29.8025 9.3652C27.4484 7.58397 24.5267 6.51245 21.3556 6.4707Z" fill="#8588D7"/>
<path id="Vector_3" d="M39.0109 20.9854C39.0109 30.8239 31.0764 38.8116 21.2725 38.8116C11.4685 38.8116 3.54785 30.8378 3.54785 20.9854C3.54785 11.133 11.4824 3.15918 21.2863 3.15918C31.0902 3.15918 39.0109 11.1469 39.0109 20.9854ZM37.1831 20.9854C37.1831 12.1767 30.0517 5.00999 21.2863 5.00999C12.5209 5.00999 5.3757 12.1767 5.3757 20.9854C5.3757 29.7941 12.5071 36.9608 21.2725 36.9608C30.0378 36.9608 37.1831 29.7941 37.1831 20.9854Z" fill="#8588D7"/>
<path id="Vector_4" d="M21.2865 35.5129C29.2487 35.5129 35.7293 29.0003 35.7293 20.9987L16.6338 34.7336C18.0878 35.2346 19.6525 35.5129 21.2865 35.5129ZM69.5445 15.1957H52.6369V18.6886H68.686V23.1695H52.6369V26.6624H69.9322V31.8252H51.2106C49.9367 31.8252 48.6904 31.2546 47.4303 30.0996C46.4333 29.042 45.9486 27.5948 45.9486 25.7718V16.6012C45.9486 14.9313 46.1979 13.7485 46.6964 13.0805C47.3749 11.842 48.4273 10.9653 49.8813 10.4226C50.4213 10.2417 51.2245 10.1582 52.2907 10.1582H69.5583V15.1957H69.5445ZM73.3941 24.7559H79.9854C79.9992 25.8275 80.2485 26.5232 80.7055 26.8433C81.0655 27.1077 81.7717 27.233 82.8518 27.233H90.9387C91.8249 27.233 92.4757 27.1355 92.8773 26.9407C93.4727 26.6763 93.7635 26.1754 93.7635 25.4239C93.7635 24.4915 93.2789 23.921 92.3095 23.7262C91.3818 23.5313 88.7785 23.4339 84.4858 23.4339C79.6531 23.4339 76.5651 23.0165 75.2496 22.1815C74.5296 21.7223 74.0449 21.0543 73.7679 20.1776C73.5464 19.454 73.4356 18.3825 73.4356 16.9213C73.4356 16.3508 73.4495 15.8637 73.4633 15.488C73.4772 15.0148 73.5325 14.5695 73.6156 14.1799C73.7956 13.2893 74.1418 12.5517 74.6542 11.9951C75.2496 11.341 76.1081 10.854 77.2436 10.5339C78.4899 10.1721 80.11 9.99121 82.1179 9.99121H91.3264C94.8159 9.99121 97.1561 10.5757 98.347 11.7585C98.8593 12.2734 99.2194 12.9553 99.4132 13.7902C99.5656 14.4304 99.6486 15.2932 99.6486 16.3925V17.0744H93.0573C93.0573 16.1977 92.905 15.6271 92.5865 15.3766C92.1849 15.0148 91.2849 14.8339 89.8586 14.8339H82.5472C80.8855 14.8339 80.0546 15.3906 80.0546 16.5038C80.0546 17.4223 80.4839 17.9789 81.3286 18.1737C81.841 18.299 82.6302 18.3686 83.7103 18.3825C84.2088 18.3964 84.8181 18.4103 85.552 18.4103H87.9338C89.3185 18.4103 90.4817 18.4242 91.4095 18.4381C92.5034 18.4521 93.445 18.5077 94.2343 18.5912C95.9237 18.7443 97.2115 19.0504 98.0977 19.4818C99.7456 20.3029 100.563 22.2372 100.563 25.3126C100.563 28.1792 99.8702 30.044 98.4855 30.8928C97.1838 31.686 94.2897 32.0896 89.8309 32.0896H81.841C78.7253 32.0896 76.579 31.6999 75.3881 30.9207C74.0864 30.0857 73.4218 28.5271 73.4218 26.2588V24.7559H73.3941ZM107.209 31.2686C105.963 30.6145 105.063 29.6821 104.537 28.4854C104.177 27.9288 103.997 26.8433 103.997 25.2291V10.1443H110.63V26.2728H125.405V31.8252H110.422C109.009 31.8252 107.943 31.6443 107.209 31.2686Z" fill="#8588D7"/>
</g>
</svg>
