<svg width="140" height="43" viewBox="0 0 140 43" fill="none" xmlns="http://www.w3.org/2000/svg">
<g id="xbox-9 1" clip-path="url(#clip0_306_4119)">
<path id="Vector" d="M136.647 34.7318L128.494 23.552L120.35 34.7318H116.994L126.796 21.2243L117.844 8.94629H121.2L128.494 18.9599L135.788 8.94629H139.141L130.196 21.2221L140 34.7318H136.647ZM73.1155 34.7273L63.3028 21.2221L72.2543 8.94629H68.8992L61.6028 18.9622L54.3131 8.94629H50.9669L59.914 21.2221L50.1035 34.7273H53.4632L61.6073 23.552L69.7581 34.7273H73.1155Z" fill="#8588D7"/>
<path id="Vector_2" d="M91.7706 22.1981C91.265 21.7628 90.7019 21.4007 90.0975 21.1224C91.025 20.6244 91.8007 19.8806 92.3414 18.9709C92.8821 18.0611 93.1673 17.0197 93.1663 15.9585C93.1663 14.3088 92.5647 8.94378 84.8701 8.94378H74.5071V20.0602H71.0558C70.6084 20.6501 69.5907 22.067 69.2037 22.6478H74.5071V34.727L84.8724 34.7293C90.4867 34.7293 93.9738 31.8502 93.9738 27.2015C93.9738 25.1721 93.2156 23.4478 91.7706 22.1981ZM77.3724 11.6353H84.8724C86.9011 11.6353 90.301 12.1461 90.301 15.7325C90.301 18.4444 88.3215 20.0602 84.8724 20.0602H77.3724V11.6353ZM84.8701 32.04H77.3702V22.6546H84.8701C87.7131 22.6546 91.1152 23.4478 91.1152 27.145C91.1152 31.4027 87.2031 32.04 84.8701 32.04ZM107.455 8.35168C100.286 8.35168 95.2756 13.8907 95.2756 21.823C95.2756 29.7665 100.286 35.301 107.455 35.301C114.617 35.301 119.614 29.7665 119.614 21.823C119.614 13.8907 114.617 8.35168 107.455 8.35168ZM107.455 32.5733C101.993 32.5733 98.1656 28.1507 98.1656 21.823C98.1656 15.4952 101.993 11.0749 107.455 11.0749C112.908 11.0749 116.713 15.4952 116.713 21.823C116.713 28.1507 112.908 32.5733 107.455 32.5733ZM6.348 6.1867L6.32787 6.20477C4.32065 8.20142 2.72728 10.5844 1.64081 13.2101C0.554345 15.8358 -0.00344314 18.6539 1.97451e-05 21.4998C-0.00633609 26.2045 1.5219 30.7802 4.34832 34.5191C4.3774 34.5553 4.42213 34.5756 4.46239 34.5553C4.50042 34.5327 4.50266 34.4852 4.487 34.4445C2.86533 29.3778 11.1548 17.0975 15.4383 11.9494C15.4517 11.9314 15.4696 11.911 15.4696 11.8862C15.4696 11.8568 15.4495 11.8342 15.4293 11.8161C8.22466 4.57086 6.30103 6.22737 6.32787 6.20477M36.2001 6.1867L36.2202 6.20477C38.2272 8.20146 39.8203 10.5845 40.9064 13.2102C41.9925 15.8359 42.5498 18.654 42.5458 21.4998C42.5522 26.2045 41.0239 30.7802 38.1975 34.5191C38.1707 34.5553 38.1237 34.5756 38.0834 34.5553C38.0476 34.5327 38.0454 34.4852 38.0588 34.4445C39.6805 29.3778 31.3977 17.0885 27.1165 11.9382C27.1008 11.9201 27.0852 11.8997 27.0852 11.8771C27.0852 11.8455 27.1031 11.8229 27.1254 11.8048C34.3323 4.55957 36.2426 6.22737 36.2179 6.20477M21.274 0.00585938C25.5664 0.00585938 29.0983 1.19457 32.355 3.15164C32.3953 3.17198 32.4065 3.21718 32.3908 3.25786C32.3752 3.29628 32.3304 3.30532 32.2879 3.29402C28.17 2.39458 21.9093 5.99008 21.3188 6.34941C21.3053 6.35845 21.2919 6.36749 21.274 6.36749C21.2539 6.36749 21.2405 6.35845 21.2271 6.34941C19.6568 5.43867 13.8703 2.37424 10.2266 3.31662C10.1863 3.32566 10.1416 3.31888 10.1237 3.2782C10.116 3.2591 10.1155 3.23787 10.122 3.21837C10.1286 3.19887 10.1419 3.18241 10.1595 3.17198C13.4162 1.19457 16.9928 0.00585938 21.274 0.00585938ZM21.274 17.2444C21.2986 17.2444 21.3255 17.2647 21.3411 17.2783C27.707 22.1687 38.6024 34.2592 35.2763 37.6785L35.2807 37.6739L35.2785 37.6785H35.2763C31.4041 41.1123 26.4239 43.0028 21.2718 42.996C16.1191 43.0023 11.1406 41.1119 7.26732 37.6785C3.94794 34.2592 14.841 22.1687 21.2002 17.2783C21.2181 17.2647 21.2472 17.2444 21.274 17.2444Z" fill="#8588D7"/>
</g>
<defs>
<clipPath id="clip0_306_4119">
<rect width="140" height="43" fill="white"/>
</clipPath>
</defs>
</svg>
